<svg width="90" height="90" viewBox="0 0 104 118" fill="none" xmlns="http://www.w3.org/2000/svg">
<path fill-rule="evenodd" clip-rule="evenodd" d="M0 0L9.43262 105.794L51.762 117.545L94.2067 105.777L103.649 0H0ZM86.1669 99.1207L51.9121 108.544V95.079L51.8091 95.1033L25.1849 87.7315L23.3671 67.3722H36.393L37.3386 77.7065L51.8119 81.5934L51.9121 81.5784V8.81044H94.1927L86.1669 99.1207ZM22.7273 60.6349V60.635L22.7274 60.6349H51.9116V47.6788V47.6787V34.7016L21.5912 47.6787H21.591V47.6788L22.7273 60.6349ZM51.9118 33.8053V20.8491H51.7801H19.2876L20.4373 33.8053H51.9118Z" fill="#100331"/>
<path fill-rule="evenodd" clip-rule="evenodd" d="M54.0036 33.8053L51.9122 34.7016V47.6787H51.9121V60.6349H67.758L66.3178 77.5741L51.9121 81.5895V95.089L78.4479 87.7172L81.9422 47.6787H51.9122L83.1202 33.8053L84.2347 20.8491H51.9122V33.6428V33.8053H54.0036Z" fill="#100331"/>
</svg>
