<svg width="733" height="372" viewBox="0 0 733 372" fill="none" xmlns="http://www.w3.org/2000/svg">
<path fill-rule="evenodd" clip-rule="evenodd" d="M469.676 0.0221723C547.858 1.43794 600.143 61.4852 658.088 103.184C709.255 140.005 764.572 175.362 785.824 227.532C807.059 279.66 781.039 333.098 773.946 387.595C764.398 460.946 812.391 558.185 737.157 601.42C661.882 644.679 562.562 560.392 469.676 562.453C372.023 564.62 278.402 648.357 191.107 613.536C105.783 579.502 111.65 481.167 83.9781 408.603C56.9886 337.827 -8.7191 262.692 31.947 196.165C72.7715 129.379 193.49 132.731 274.914 96.2454C343.174 65.6584 391.316 -1.39681 469.676 0.0221723Z" fill="#4D0089" fill-opacity="0.2"/>
<path fill-rule="evenodd" clip-rule="evenodd" d="M450.676 32.0222C528.858 33.4379 581.143 93.4852 639.088 135.184C690.255 172.005 745.572 207.362 766.824 259.532C788.059 311.66 762.039 365.098 754.946 419.595C745.398 492.946 793.391 590.185 718.157 633.42C642.882 676.679 543.562 592.392 450.676 594.453C353.023 596.62 259.402 680.357 172.107 645.536C86.7832 611.502 92.6495 513.167 64.9781 440.603C37.9886 369.827 -27.7191 294.692 12.947 228.165C53.7715 161.379 174.49 164.731 255.914 128.245C324.174 97.6584 372.316 30.6032 450.676 32.0222Z" fill="#4D0089" fill-opacity="0.3"/>
</svg>
