<svg width="471" height="287" viewBox="0 0 471 287" fill="none" xmlns="http://www.w3.org/2000/svg">
<path fill-rule="evenodd" clip-rule="evenodd" d="M-6.34334 337.762C-30.0566 303.605 -21.819 269.676 -22.8207 236.736C-23.7052 207.649 -26.4761 177.037 -11.8085 158.039C2.84774 139.056 32.7191 140.312 57.1426 133.164C90.0154 123.545 114.75 84.5008 155.753 109.004C196.778 133.522 193.27 192.386 222.97 232.265C254.193 274.191 317.421 299.068 330.346 343.441C342.979 386.812 301.064 402.714 280.075 428.321C259.604 453.296 249.385 495.873 209.626 490.723C169.713 485.553 133.573 432.594 93.3995 404.141C59.7206 380.288 17.4239 371.996 -6.34334 337.762Z" fill="#4D0089" fill-opacity="0.2"/>
<path fill-rule="evenodd" clip-rule="evenodd" d="M-6.93025 350.961C-30.6435 316.804 -22.406 282.875 -23.4076 249.935C-24.2921 220.848 -27.063 190.236 -12.3954 171.238C2.26083 152.255 32.1322 153.511 56.5557 146.363C89.4285 136.744 114.163 97.6999 155.166 122.203C196.191 146.721 192.683 205.585 222.383 245.464C253.606 287.39 316.835 312.267 329.759 356.64C342.392 400.012 300.477 415.913 279.488 441.52C259.017 466.495 248.798 509.072 209.039 503.922C169.126 498.753 132.986 445.793 92.8126 417.34C59.1337 393.487 16.8369 385.195 -6.93025 350.961Z" fill="#4D0089" fill-opacity="0.3"/>
</svg>
