<svg width="381" height="271" viewBox="0 0 381 271" fill="none" xmlns="http://www.w3.org/2000/svg">
<path fill-rule="evenodd" clip-rule="evenodd" d="M174.344 187.259C132.653 174.03 118.762 143.371 97.485 118.563C78.6973 96.6582 57.3319 74.6186 58.2581 51.911C59.1836 29.2211 85.8205 13.7285 102.535 -5.23138C125.031 -30.7504 122.252 -74.4374 172.929 -78.1661C223.633 -81.8968 257.069 -34.6475 307.487 -20.3113C360.493 -5.23954 430.641 -20.9274 469.323 6.11155C507.132 32.54 480.699 67.878 478.396 99.1557C476.15 129.663 493.684 168.072 456.075 186.015C418.32 204.027 354.222 183.17 301.816 183.401C257.882 183.595 216.13 200.518 174.344 187.259Z" fill="#4D0089" fill-opacity="0.2"/>
<path fill-rule="evenodd" clip-rule="evenodd" d="M176.501 197.744C134.81 184.514 120.919 153.855 99.6423 129.048C80.8545 107.143 59.4891 85.1033 60.4153 62.3957C61.3409 39.7058 87.9777 24.2132 104.692 5.25336C127.188 -20.2656 124.409 -63.9527 175.086 -67.6814C225.79 -71.4121 259.226 -24.1627 309.645 -9.82659C362.65 5.2452 432.799 -10.4427 471.48 16.5963C509.289 43.0248 482.857 78.3627 480.553 109.64C478.307 140.147 495.841 178.556 458.232 196.499C420.477 214.512 356.379 193.655 303.973 193.886C260.039 194.08 218.287 211.003 176.501 197.744Z" fill="#4D0089" fill-opacity="0.3"/>
</svg>
