<svg width="950" height="737" viewBox="0 0 950 737" fill="none" xmlns="http://www.w3.org/2000/svg">
<path fill-rule="evenodd" clip-rule="evenodd" d="M376.341 304.267C304.956 339.711 234.568 363.804 159.175 358.88C68.7903 352.976 -29.6013 348.818 -86.3104 274.047C-149.354 190.925 -165.508 71.4963 -143.95 -40.7884C-121.301 -158.76 -63.3873 -274.543 31.0984 -337.489C122.881 -398.634 228.374 -371.2 329.679 -356.317C441.019 -339.96 573.001 -349.564 635.189 -248.741C698.858 -145.518 683.022 7.58773 627.414 126.389C579.821 228.068 469.853 257.836 376.341 304.267Z" fill="#4D0089" fill-opacity="0.2"/>
<path fill-rule="evenodd" clip-rule="evenodd" d="M320.025 301.009C248.427 335.822 177.909 359.285 102.602 353.668C12.3205 346.934 -85.9756 341.873 -142.1 266.539C-204.493 182.79 -219.762 63.1434 -197.397 -49.0108C-173.899 -166.845 -115.176 -282.167 -20.2917 -344.286C71.878 -404.628 177.1 -376.212 278.229 -360.394C389.377 -343.008 521.342 -351.41 582.751 -249.958C645.621 -146.091 628.675 6.96043 572.234 125.323C523.928 226.627 413.815 255.407 320.025 301.009Z" fill="#4D0089" fill-opacity="0.3"/>
</svg>
