<svg width="196" height="503" viewBox="0 0 196 503" fill="none" xmlns="http://www.w3.org/2000/svg">
<path fill-rule="evenodd" clip-rule="evenodd" d="M-69.7629 145.744C-48.8278 120.519 -21.318 119.61 3.48983 111.892C25.3956 105.077 48.0611 96.5076 65.5885 103.636C83.1023 110.758 88.4572 133.712 99.0439 150.753C113.293 173.689 148.172 184.23 138.221 220.548C128.263 256.886 82.8131 266.654 58.7961 297.634C33.5466 330.204 28.0053 383.482 -2.96796 402.671C-33.2419 421.426 -54.1725 392.948 -78.0541 382.415C-101.347 372.141 -135.844 373.372 -140.33 342.086C-144.833 310.678 -112.241 272.044 -99.1146 235.522C-88.1102 204.903 -90.7457 171.026 -69.7629 145.744Z" fill="#4D0089" fill-opacity="0.2"/>
<path fill-rule="evenodd" clip-rule="evenodd" d="M-79.9114 148.086C-58.9762 122.861 -31.4664 121.952 -6.65861 114.234C15.2472 107.419 37.9127 98.8495 55.4401 105.978C72.9538 113.1 78.3087 136.054 88.8955 153.095C103.145 176.031 138.024 186.572 128.072 222.89C118.115 259.228 72.6647 268.996 48.6476 299.976C23.3982 332.546 17.8569 385.824 -13.1164 405.013C-43.3903 423.768 -64.3209 395.29 -88.2025 384.757C-111.496 374.483 -145.993 375.714 -150.478 344.428C-154.981 313.02 -122.39 274.386 -109.263 237.863C-98.2586 207.245 -100.894 173.368 -79.9114 148.086Z" fill="#4D0089" fill-opacity="0.3"/>
</svg>
