<svg width="1033" height="369" viewBox="0 0 1033 369" fill="none" xmlns="http://www.w3.org/2000/svg">
<path fill-rule="evenodd" clip-rule="evenodd" d="M127.189 723.075C32.2086 689.184 0.562345 610.644 -47.9101 547.094C-90.7123 490.979 -139.387 434.519 -137.277 376.348C-135.168 318.222 -74.4843 278.534 -36.4061 229.964C14.8452 164.591 8.514 52.6759 123.965 43.1241C239.48 33.5669 315.652 154.608 430.516 191.333C551.273 229.943 711.084 189.755 799.209 259.022C885.344 326.725 825.126 417.251 819.879 497.377C814.761 575.528 854.707 673.922 769.027 719.887C683.014 766.031 536.986 712.6 417.595 713.193C317.505 713.69 222.385 757.042 127.189 723.075Z" fill="#4D0089" fill-opacity="0.2"/>
<path fill-rule="evenodd" clip-rule="evenodd" d="M144.662 749.934C49.6812 716.044 18.035 637.504 -30.4375 573.954C-73.2396 517.838 -121.914 461.378 -119.804 403.208C-117.695 345.082 -57.0116 305.394 -18.9334 256.823C32.3179 191.45 25.9867 79.5354 141.437 69.9836C256.953 60.4264 333.125 181.467 447.988 218.193C568.746 256.803 728.557 216.614 816.682 285.881C902.816 353.584 842.599 444.111 837.351 524.236C832.233 602.388 872.179 700.781 786.5 746.746C700.486 792.89 554.459 739.459 435.067 740.052C334.977 740.549 239.858 783.901 144.662 749.934Z" fill="#4D0089" fill-opacity="0.3"/>
</svg>
