<svg width="798" height="622" viewBox="0 0 798 622" fill="none" xmlns="http://www.w3.org/2000/svg">
<path fill-rule="evenodd" clip-rule="evenodd" d="M473.676 0.0221723C551.858 1.43794 604.143 61.4852 662.088 103.184C713.255 140.005 768.572 175.362 789.824 227.532C811.059 279.66 785.039 333.098 777.946 387.595C768.398 460.946 816.391 558.185 741.157 601.42C665.882 644.679 566.562 560.392 473.676 562.453C376.023 564.62 282.402 648.357 195.107 613.536C109.783 579.502 115.65 481.167 87.9781 408.603C60.9886 337.827 -4.7191 262.692 35.947 196.165C76.7715 129.379 197.49 132.731 278.914 96.2454C347.174 65.6584 395.316 -1.39681 473.676 0.0221723Z" fill="#1E003A" fill-opacity="0.5"/>
<path fill-rule="evenodd" clip-rule="evenodd" d="M450.676 0.0221723C528.858 1.43794 581.143 61.4852 639.088 103.184C690.255 140.005 745.572 175.362 766.824 227.532C788.059 279.66 762.039 333.098 754.946 387.595C745.398 460.946 793.391 558.185 718.157 601.42C642.882 644.679 543.562 560.392 450.676 562.453C353.023 564.62 259.402 648.357 172.107 613.536C86.7832 579.502 92.6495 481.167 64.9781 408.603C37.9886 337.827 -27.7191 262.692 12.947 196.165C53.7715 129.379 174.49 132.731 255.914 96.2454C324.174 65.6584 372.316 -1.39681 450.676 0.0221723Z" fill="#1E003A" fill-opacity="0.8"/>
</svg>
