<svg width="454" height="304" viewBox="0 0 454 304" fill="none" xmlns="http://www.w3.org/2000/svg">
<path fill-rule="evenodd" clip-rule="evenodd" d="M308.353 460.233C267.006 474.502 237.562 458.194 205.684 450.989C177.536 444.627 147.239 439.696 134.428 420.924C121.628 402.166 133.753 373.837 135.848 348.649C138.666 314.747 110.361 281.353 148.796 248.115C187.252 214.858 242.28 232.812 291.29 214.221C342.814 194.677 389.734 140.221 436.909 138.828C483.018 137.467 482.902 181.596 499.723 208.067C516.129 233.885 553.122 254.237 533.656 291.08C514.114 328.067 450.237 349.59 408.327 381.055C373.193 407.433 349.794 445.931 308.353 460.233Z" fill="#4D0089" fill-opacity="0.2"/>
<path fill-rule="evenodd" clip-rule="evenodd" d="M316.342 467.357C274.996 481.627 245.551 465.318 213.673 458.114C185.525 451.752 155.228 446.821 142.418 428.048C129.618 409.291 141.743 380.962 143.837 355.774C146.655 321.871 118.351 288.478 156.785 255.239C195.241 221.983 250.269 239.936 299.279 221.346C350.804 201.802 397.723 147.346 444.898 145.953C491.007 144.592 490.891 188.721 507.712 215.191C524.118 241.009 561.111 261.361 541.645 298.205C522.104 335.192 458.226 356.714 416.316 388.179C381.182 414.557 357.783 453.056 316.342 467.357Z" fill="#4D0089" fill-opacity="0.3"/>
</svg>
