<svg width="127" height="128" viewBox="0 0 127 128" fill="none" xmlns="http://www.w3.org/2000/svg">
<path fill-rule="evenodd" clip-rule="evenodd" d="M124.546 58.3539L69.4639 3.27501C66.294 0.102339 61.1489 0.102339 57.9749 3.27501L46.5372 14.713L61.0465 29.2226C64.4184 28.0833 68.2845 28.8474 70.9727 31.5356C73.6733 34.2404 74.4318 38.1398 73.2649 41.5229L87.2482 55.5065C90.6312 54.341 94.5347 55.0954 97.2367 57.8015C101.013 61.5764 101.013 67.6947 97.2367 71.4723C93.4592 75.2499 87.341 75.2499 83.5621 71.4723C80.7217 68.6291 80.0199 64.457 81.4581 60.9576L68.4174 47.9167L68.416 82.2347C69.3365 82.6915 70.2058 83.2992 70.9727 84.0633C74.7488 87.8381 74.7488 93.9565 70.9727 97.7368C67.1951 101.513 61.0742 101.513 57.3022 97.7368C53.5261 93.9565 53.5261 87.8381 57.3022 84.0633C58.2351 83.1317 59.3148 82.4271 60.4665 81.9537V47.3159C59.3148 46.8453 58.2365 46.1449 57.3022 45.2064C54.441 42.3493 53.7531 38.1509 55.2189 34.6377L40.9173 20.333L3.14905 58.0992C-0.0249448 61.2746 -0.0249448 66.4198 3.14905 69.5925L58.231 124.673C61.4022 127.845 66.546 127.845 69.7213 124.673L124.546 69.8486C127.718 66.6745 127.718 61.5265 124.546 58.3539Z" fill="#100331"/>
</svg>
