<svg width="127" height="127" viewBox="0 0 127 127" fill="none" xmlns="http://www.w3.org/2000/svg">
<g clip-path="url(#clip0_124_261)">
<path fill-rule="evenodd" clip-rule="evenodd" d="M7.8623 0.179077L17.9857 113.725L63.4135 126.336L108.967 113.707L119.101 0.179077H7.8623ZM100.291 106.478L63.4816 116.683V102.231L63.4175 102.249L34.8913 94.3302L32.9403 72.4645H46.9197L47.9112 83.5711L63.4206 87.7589L63.4334 87.7555V102.242L91.9823 94.3302L95.4642 55.3151L95.804 51.5756H63.4816V37.3152H97.0711L98.3181 23.3892H63.4816V9.46312H108.951L100.291 106.478ZM63.4334 23.3892H28.562L32.3181 65.5013H63.4334V51.5756H45.054L43.7813 37.3152H63.4334V23.3892ZM78.9652 83.5622L63.4816 87.7413V65.5013H80.5817L78.9652 83.5622Z" fill="#100331"/>
</g>
<defs>
<clipPath id="clip0_124_261">
<rect width="126.157" height="126.157" fill="white" transform="translate(0.470215 0.179077)"/>
</clipPath>
</defs>
</svg>
