<svg width="378" height="512" viewBox="0 0 378 512" fill="none" xmlns="http://www.w3.org/2000/svg">
<path d="M121.613 395.958C121.613 395.958 102.047 407.336 135.537 411.186C176.109 415.815 196.845 415.151 241.556 406.689C241.556 406.689 253.31 414.059 269.727 420.443C169.497 463.4 42.8874 417.955 121.613 395.958Z" fill="#5382A1"/>
<path d="M109.368 339.902C109.368 339.902 87.4231 356.146 120.938 359.613C164.278 364.084 198.505 364.45 257.731 353.045C257.731 353.045 265.923 361.35 278.803 365.892C157.62 401.327 22.6429 368.686 109.368 339.902Z" fill="#5382A1"/>
<path d="M212.617 244.813C237.313 273.246 206.128 298.833 206.128 298.833C206.128 298.833 268.837 266.461 240.038 225.923C213.14 188.119 192.513 169.336 304.179 104.574C304.179 104.574 128.9 148.351 212.617 244.813Z" fill="#E76F00"/>
<path d="M345.179 437.42C345.179 437.42 359.658 449.35 329.233 458.58C271.379 476.106 88.4386 481.398 37.6186 459.278C19.3501 451.331 53.6087 440.302 64.3851 437.987C75.6239 435.55 82.0464 436.004 82.0464 436.004C61.73 421.692 -49.2706 464.107 25.6636 476.253C230.02 509.394 398.186 461.33 345.179 437.42Z" fill="#5382A1"/>
<path d="M131.025 281.822C131.025 281.822 37.9696 303.924 98.0715 311.95C123.448 315.348 174.037 314.579 221.158 310.631C259.669 307.382 298.338 300.475 298.338 300.475C298.338 300.475 284.759 306.291 274.934 312.999C180.438 337.851 -2.1099 326.29 50.4434 300.869C94.8879 279.385 131.025 281.822 131.025 281.822Z" fill="#5382A1"/>
<path d="M297.953 375.129C394.012 325.213 349.598 277.244 318.597 283.707C310.999 285.288 307.611 286.659 307.611 286.659C307.611 286.659 310.432 282.24 315.82 280.327C377.148 258.766 424.314 343.919 296.022 377.645C296.022 377.646 297.508 376.317 297.953 375.129Z" fill="#5382A1"/>
<path d="M240.04 0C240.04 0 293.239 53.2171 189.583 135.05C106.461 200.694 170.628 238.122 189.548 280.886C141.029 237.11 105.422 198.573 129.31 162.707C164.371 110.058 261.504 84.5322 240.04 0Z" fill="#E76F00"/>
<path d="M140.461 510.391C232.666 516.293 374.257 507.116 377.611 463.487C377.611 463.487 371.165 480.026 301.408 493.161C222.709 507.971 125.645 506.242 68.0757 496.751C68.0771 496.749 79.8609 506.505 140.461 510.391Z" fill="#5382A1"/>
</svg>
