<svg width="114" height="134" viewBox="0 0 114 134" fill="none" xmlns="http://www.w3.org/2000/svg">
<path d="M72.6305 0.597046C72.6305 0.597046 88.5902 14.4233 57.4934 35.6843C38.2105 48.8725 45.3494 57.6773 52.2023 66.1291C54.2115 68.6072 56.1961 71.0549 57.483 73.5739C42.9271 62.2003 32.2451 52.1882 39.4114 42.8698C42.9111 38.3186 48.4723 34.5476 54.0985 30.7324C65.3821 23.081 76.9274 15.252 72.6305 0.597046Z" fill="#100331"/>
<path d="M64.4043 64.2017C71.8133 71.589 62.4577 78.2367 62.4577 78.2367C62.4577 78.2367 81.2703 69.8261 72.6305 59.294C72.2839 58.8722 71.9408 58.4594 71.6041 58.0544C64.1028 49.031 59.812 43.8695 91.8729 27.7663C91.8729 27.7663 39.2893 39.1399 64.4043 64.2017Z" fill="#100331"/>
<path d="M36.9001 94.0278C26.8457 93.1271 33.4291 88.9068 33.4291 88.9068C7.41162 96.3852 47.9047 104.866 84.2598 95.6591C80.3955 94.4792 77.938 92.3215 77.938 92.3215C60.1703 95.2844 49.9022 95.1894 36.9001 94.0278Z" fill="#100331"/>
<path d="M41.2806 107.427C31.2336 106.427 37.1033 103.471 37.1033 103.471C13.4858 109.186 51.4688 120.993 81.5377 109.832C76.6127 108.174 73.0863 106.259 73.0863 106.259C59.673 108.457 53.4523 108.63 41.2806 107.427Z" fill="#100331"/>
<path d="M99.389 119.74C108.517 117.342 104.173 114.243 104.173 114.243C120.075 120.455 69.6252 132.942 8.31823 124.332C-14.1621 121.176 19.1382 110.157 25.2331 113.875C25.2331 113.875 23.3063 113.757 19.9347 114.39C16.7018 114.991 6.42417 117.857 11.9047 119.922C27.1507 125.669 82.0329 124.294 99.389 119.74Z" fill="#100331"/>
<path d="M39.9261 73.817C39.9261 73.817 12.0095 79.5593 30.0401 81.6446C37.6532 82.5273 52.8297 82.3276 66.9661 81.3018C78.5193 80.4578 90.12 78.6633 90.12 78.6633C90.12 78.6633 86.0462 80.1742 83.099 81.9171C54.7502 88.374 -0.0143251 85.3701 15.7517 78.7655C29.085 73.1838 39.9261 73.817 39.9261 73.817Z" fill="#100331"/>
<path d="M96.1984 74.3067C105.498 72.6277 118.823 85.0905 90.0049 98.0592C89.8716 98.3679 89.4257 98.7128 89.4257 98.7128C127.913 89.9505 113.764 67.8269 95.365 73.4287C93.7487 73.9256 92.9025 75.0737 92.9025 75.0737C92.9025 75.0737 93.9189 74.7176 96.1984 74.3067Z" fill="#100331"/>
<path d="M113.903 121.015C112.897 132.35 70.4193 134.735 42.7578 133.201C24.7123 132.199 21.0957 129.695 21.0428 129.658L21.0422 129.657C38.3131 132.124 67.4323 132.573 91.042 128.725C111.969 125.312 113.903 121.015 113.903 121.015Z" fill="#100331"/>
</svg>
