<svg width="128" height="127" viewBox="0 0 128 127" fill="none" xmlns="http://www.w3.org/2000/svg">
<path fill-rule="evenodd" clip-rule="evenodd" d="M2.40381 1.65747H125.604V124.857H2.40381V1.65747ZM34.7976 104.612L34.7978 104.612C37.5269 110.4 42.903 115.197 52.1642 115.197C62.4194 115.197 69.4484 109.739 69.4484 97.7472V58.2182H57.8708V97.5835C57.8708 103.372 55.4723 104.86 51.6679 104.86C47.6991 104.86 46.0445 102.132 44.2257 98.9066L34.7978 104.612L34.7974 104.611L34.7976 104.612ZM85.164 97.9136L75.7373 103.372C79.1274 110.071 86.0743 115.198 96.8252 115.198C107.824 115.198 116.011 109.492 116.011 99.0713C116.011 89.3958 110.47 85.0959 100.629 80.878L97.7345 79.6375C92.7731 77.4872 90.6228 76.081 90.6228 72.6075C90.6228 69.7962 92.7731 67.6461 96.1638 67.6461C99.4717 67.6461 101.621 69.0517 103.606 72.6075L112.62 66.8189C108.817 60.1201 103.524 57.5562 96.1636 57.5562C85.8258 57.5562 79.21 64.1724 79.21 72.8559C79.21 82.2838 84.751 86.7495 93.1042 90.3049L95.9978 91.5463C101.291 93.8611 104.433 95.2671 104.433 99.2367C104.433 102.545 101.374 104.943 96.5768 104.943C90.8709 104.943 87.6456 101.966 85.164 97.9136Z" fill="#100331"/>
</svg>
