<svg width="57" height="58" viewBox="0 0 57 58" fill="none" xmlns="http://www.w3.org/2000/svg">
<rect y="0.456055" width="57" height="57" rx="28.5" fill="#A45CFF"/>
<path d="M41.861 13.2811H15.1394C14.5257 13.2811 13.937 13.5249 13.503 13.9589C13.069 14.3929 12.8252 14.9815 12.8252 15.5953V42.3168C12.8252 42.9306 13.069 43.5192 13.503 43.9532C13.937 44.3872 14.5257 44.6311 15.1394 44.6311H41.861C42.4747 44.6311 43.0634 44.3872 43.4974 43.9532C43.9314 43.5192 44.1752 42.9306 44.1752 42.3168V15.5953C44.1752 14.9815 43.9314 14.3929 43.4974 13.9589C43.0634 13.5249 42.4747 13.2811 41.861 13.2811ZM22.1692 39.9873H17.4559V25.0155H22.1692V39.9873ZM19.8093 22.9408C19.2746 22.9378 18.7528 22.7765 18.3098 22.4772C17.8667 22.1779 17.5223 21.7541 17.3198 21.2592C17.1174 20.7644 17.0661 20.2206 17.1724 19.6967C17.2787 19.1727 17.5379 18.6919 17.9172 18.3151C18.2964 17.9382 18.7788 17.6822 19.3035 17.5792C19.8282 17.4763 20.3715 17.5311 20.8651 17.7367C21.3587 17.9423 21.7802 18.2894 22.0767 18.7344C22.3731 19.1794 22.5311 19.7022 22.5306 20.2368C22.5357 20.5948 22.4686 20.9501 22.3334 21.2816C22.1982 21.6131 21.9977 21.9139 21.7437 22.1663C21.4898 22.4186 21.1876 22.6172 20.8553 22.7503C20.5229 22.8833 20.1672 22.9481 19.8093 22.9408ZM39.5424 40.0004H34.8312V31.8211C34.8312 29.4089 33.8057 28.6643 32.4821 28.6643C31.0844 28.6643 29.7128 29.718 29.7128 31.8821V40.0004H24.9994V25.0264H29.5321V27.1012H29.5931C30.0481 26.1803 31.6417 24.6063 34.0735 24.6063C36.7034 24.6063 39.5445 26.1672 39.5445 30.7391L39.5424 40.0004Z" fill="#1E003A"/>
</svg>
