<svg width="127" height="128" viewBox="0 0 127 128" fill="none" xmlns="http://www.w3.org/2000/svg">
<path d="M100.177 100.917C104.639 98.9942 109.959 98.2945 116.823 98.4688C116.63 97.1605 114.177 95.6065 112.38 94.468C111.777 94.0858 111.247 93.7505 110.902 93.487C108.157 91.4767 105.239 89.3781 102.322 87.5433C101.382 86.9583 100.029 86.4702 98.7273 86.0005C97.8897 85.6984 97.0732 85.4038 96.4014 85.0959C95.715 84.811 94.7802 84.526 93.7708 84.2183C91.3733 83.4876 88.5556 82.6287 87.6495 81.3375C85.3164 78.2475 83.6882 74.5111 82.0623 70.7799C81.8943 70.3945 81.7264 70.0091 81.5577 69.6244C80.7066 67.6425 79.7598 65.6215 78.8076 63.5892C77.7442 61.3192 76.6741 59.0351 75.7232 56.7752C75.3089 55.8547 74.9938 54.9845 74.6837 54.1278C74.2872 53.0324 73.8987 51.9592 73.3209 50.8315C67.0568 38.507 57.7907 28.1923 46.5503 20.9375C42.8603 18.5774 38.7424 16.3916 34.1944 14.9061C32.8056 14.4818 31.267 14.4135 29.7133 14.3445C28.3873 14.2857 27.0502 14.2263 25.7859 13.9448H23.9837C22.9433 13.6504 22.0198 12.8005 21.1606 12.01C20.7444 11.627 20.3433 11.2579 19.9514 10.9727C17.2912 9.1373 14.6315 7.91279 11.4567 6.60222C10.3414 6.07799 7.16659 4.85404 6.05126 5.81587C5.36441 5.9908 5.02153 6.25292 4.84981 6.95208C4.1635 8.0011 4.76477 9.57435 5.19324 10.5356C6.04372 12.384 7.11912 13.7362 8.22112 15.1219C8.78682 15.8333 9.35952 16.5534 9.91241 17.354C10.1765 17.7337 10.4518 18.122 10.7317 18.5168C11.9982 20.3029 13.3592 22.2225 14.2025 24.084C15.3926 26.6956 16.2408 29.4563 17.0859 32.207C17.825 34.6124 18.5616 37.01 19.5224 39.2934C20.2943 41.1293 21.4958 43.2268 22.6111 44.8878C22.9609 45.3738 23.4169 45.8118 23.8786 46.2552C24.6622 47.0078 25.4621 47.7759 25.7859 48.8212C26.6203 50.2378 25.0884 54.2944 24.1576 56.7592C23.9397 57.3361 23.7548 57.8259 23.6408 58.1741C21.4096 65.3411 21.8386 75.306 24.4127 81.5118C24.5047 81.7305 24.5961 81.9527 24.688 82.1765C25.6256 84.4576 26.6319 86.9061 29.1319 87.5433C29.2097 87.4641 29.2171 87.4387 29.2338 87.4265C29.254 87.4118 29.2877 87.4163 29.4753 87.3683C29.6009 86.3636 29.7077 85.3665 29.813 84.3834C30.2117 80.6627 30.5889 77.1428 31.8777 74.1698C32.4918 72.6347 33.5049 71.3953 34.4923 70.1874C35.023 69.5383 35.5462 68.8982 35.9961 68.2261C36.5407 68.5588 36.7396 69.3138 36.944 70.0894C37.0616 70.5359 37.1811 70.9891 37.3693 71.3726C37.4503 71.5694 37.5317 71.7675 37.6137 71.9669C38.66 74.5124 39.7858 77.251 41.0587 79.7637C43.8901 85.358 47.0654 90.7769 50.6687 95.6722C51.8696 97.4203 53.5862 99.3435 55.1306 100.917C55.3654 101.126 55.6103 101.305 55.8515 101.481C56.3151 101.819 56.765 102.147 57.1039 102.665H57.2756V102.928C55.6466 102.319 54.3958 101.01 53.1747 99.7324C52.4663 98.9912 51.7679 98.2604 51.0116 97.683C47.1505 94.7109 42.5175 90.2527 39.8572 85.97C39.0194 84.1316 38.1333 82.3423 37.2349 80.5283C36.9373 79.9275 36.6385 79.324 36.3396 78.7152C36.3396 78.7152 36.34 78.6274 36.3396 78.5402C36.0117 78.9857 35.9624 79.431 35.9031 79.967C35.8694 80.2722 35.8324 80.6068 35.7388 80.9876C35.4208 82.2338 35.2632 83.5298 35.1109 84.7823C34.7291 87.9223 34.3805 90.7891 31.6204 91.9137C27.2446 93.7496 23.9837 88.941 22.6111 86.7564C18.2354 79.5016 17.0339 67.2643 20.1226 57.3872C20.3616 56.6269 20.5278 55.8138 20.6936 55.003C21.0043 53.4832 21.3134 51.9715 22.0965 50.8315C21.9243 49.7811 21.3318 49.2369 20.7526 48.7051C20.4644 48.4404 20.1795 48.1788 19.9514 47.8594C18.75 46.199 17.7208 44.2758 16.7766 42.4405C15.4047 39.7121 14.3317 36.5783 13.2917 33.5411C12.9656 32.5886 12.6426 31.6455 12.3148 30.7274C12.0219 29.9604 11.8311 29.1931 11.6429 28.436C11.445 27.6403 11.25 26.8558 10.9421 26.0949C10.131 24.3045 8.78793 22.5145 7.54098 20.8526C7.20486 20.4047 6.87573 19.966 6.56588 19.5392C6.23163 19.0505 5.78905 18.4841 5.29569 17.8528C2.87641 14.7567 -0.763915 10.0981 1.16044 5.37884C4.76425 -3.62418 17.3779 3.19306 22.2677 6.34012C22.7567 6.66038 23.2741 7.12533 23.8084 7.60541C24.5868 8.30491 25.401 9.03652 26.2149 9.39943C27.2877 9.44331 28.3606 9.50886 29.4334 9.5744C30.5058 9.63991 31.5781 9.70543 32.6502 9.74929C33.0014 9.83302 33.3508 9.91543 33.6979 9.99732C37.3361 10.8556 40.7345 11.6573 43.6328 13.3328C58.391 22.1615 68.001 31.1645 76.8386 46.024C78.0384 48.0238 78.857 50.1297 79.6907 52.2742C80.1687 53.504 80.6517 54.7464 81.2143 55.9888C83.3593 61.0584 85.7628 66.3896 88.2502 71.1977C88.5629 71.835 88.8555 72.4929 89.1486 73.1522C89.9007 74.844 90.6568 76.5444 91.7684 77.9283C92.1679 78.5101 93.0621 78.8205 93.9189 79.118C94.3493 79.2674 94.7703 79.4136 95.1144 79.5893C96.2242 80.1715 97.4263 80.7002 98.638 81.2331C100.518 82.0598 102.421 82.8967 104.038 83.9597C109.015 87.1062 113.82 90.8642 118.196 94.7109C119.08 95.5171 119.813 96.5033 120.545 97.4882C121.163 98.3187 121.779 99.1483 122.486 99.8683V100.655C121.113 101.092 119.74 101.529 118.367 101.879C116.874 102.27 115.465 102.423 114.067 102.575C112.655 102.729 111.254 102.881 109.787 103.277C109.602 103.331 109.413 103.386 109.22 103.443C107.531 103.94 105.56 104.519 103.866 104.676C103.952 104.763 104.038 104.85 104.038 104.85C104.865 107.248 108.382 109.31 111.264 111C112.268 111.589 113.196 112.133 113.905 112.63C117.252 115.077 120.341 118.049 122.829 121.458C123.257 121.894 123.685 122.308 124.113 122.722C124.543 123.138 124.973 123.555 125.403 123.993C125.694 124.416 125.884 124.901 126.071 125.377C126.27 125.885 126.466 126.384 126.776 126.79V127.052C126.025 126.779 125.509 126.233 124.997 125.691C124.69 125.366 124.384 125.042 124.03 124.78C123.222 124.219 122.414 123.609 121.606 122.999C120.527 122.185 119.447 121.371 118.367 120.671C116.707 119.603 114.913 118.762 113.111 117.916C111.373 117.101 109.627 116.282 107.985 115.252C106.098 114.028 104.295 112.63 102.494 111.231C100.863 110.007 99.0622 107.647 98.0319 105.899C97.7722 105.484 97.6088 105.035 97.4515 104.604C97.2449 104.037 97.0487 103.499 96.6587 103.102C96.7872 101.86 97.9713 101.547 99.0987 101.248C99.4788 101.148 99.8524 101.049 100.177 100.917Z" fill="#100331"/>
<path d="M25.7855 22.9478C26.8152 22.6857 27.8444 22.5102 29.3032 22.5102C29.5751 22.7874 29.9145 23.0234 30.2572 23.2616C30.7794 23.6246 31.3093 23.993 31.62 24.5211C31.8106 24.7929 31.9334 25.0648 32.0562 25.3367C32.2098 25.6768 32.3634 26.0169 32.6497 26.357C32.6497 28.4545 32.0495 29.8528 30.8475 30.7274C30.8475 30.7274 30.762 30.8146 30.6764 30.9023C30.3334 30.2039 30.0121 29.5055 29.6908 28.8072C29.3686 28.1068 29.0464 27.4065 28.7025 26.7063C28.3684 26.2299 27.9823 25.7932 27.5949 25.3549C26.9875 24.6676 26.3766 23.9765 25.9572 23.1227H25.7855V22.9478Z" fill="#100331"/>
</svg>
