<svg width="906" height="895" viewBox="0 0 906 895" fill="none" xmlns="http://www.w3.org/2000/svg">
<path fill-rule="evenodd" clip-rule="evenodd" d="M564.136 134.451C619.126 192.143 662.977 252.243 680.594 325.714C701.713 413.795 726.871 509.007 672.241 585.309C611.509 670.136 502.217 720.922 388.583 733.573C269.195 746.865 141.457 725.826 53.3597 654.211C-32.2169 584.645 -37.2443 475.759 -53.0201 374.59C-70.3589 263.398 -118.606 140.176 -40.7136 50.9264C39.0326 -40.4471 189.963 -70.6483 319.901 -52.7049C431.113 -37.3475 492.102 58.8771 564.136 134.451Z" fill="#4D0089" fill-opacity="0.2"/>
<path fill-rule="evenodd" clip-rule="evenodd" d="M541.899 136.494C596.348 194.576 639.636 254.986 656.566 328.58C676.862 416.808 701.128 512.196 645.788 588.107C584.265 672.498 474.502 722.504 360.754 734.345C241.245 746.785 113.708 724.836 26.2831 652.596C-58.6406 582.423 -62.6505 473.505 -77.4805 372.226C-93.7797 260.914 -140.874 137.352 -62.15 48.661C18.4473 -42.1411 169.655 -71.2657 299.421 -52.3969C410.486 -36.2474 470.574 60.4086 541.899 136.494Z" fill="#4D0089" fill-opacity="0.3"/>
</svg>
