<svg width="470" height="526" viewBox="0 0 470 526" fill="none" xmlns="http://www.w3.org/2000/svg">
<path fill-rule="evenodd" clip-rule="evenodd" d="M450.676 0.0221723C528.858 1.43794 581.143 61.4852 639.088 103.184C690.255 140.005 745.572 175.362 766.824 227.532C788.059 279.66 762.039 333.098 754.946 387.595C745.398 460.946 793.391 558.185 718.157 601.42C642.882 644.679 543.562 560.392 450.676 562.453C353.023 564.62 259.402 648.357 172.107 613.536C86.7832 579.502 92.6495 481.167 64.9781 408.603C37.9886 337.827 -27.7191 262.692 12.947 196.165C53.7715 129.379 174.49 132.731 255.914 96.2454C324.174 65.6584 372.316 -1.39681 450.676 0.0221723Z" fill="#4D0089" fill-opacity="0.2"/>
<path fill-rule="evenodd" clip-rule="evenodd" d="M486.676 19.0222C564.858 20.4379 617.143 80.4852 675.088 122.184C726.255 159.005 781.572 194.362 802.824 246.532C824.059 298.66 798.039 352.098 790.946 406.595C781.398 479.946 829.391 577.185 754.157 620.42C678.882 663.679 579.562 579.392 486.676 581.453C389.023 583.62 295.402 667.357 208.107 632.536C122.783 598.502 128.65 500.167 100.978 427.603C73.9886 356.827 8.2809 281.692 48.947 215.165C89.7715 148.379 210.49 151.731 291.914 115.245C360.174 84.6584 408.316 17.6032 486.676 19.0222Z" fill="#4D0089" fill-opacity="0.3"/>
</svg>
