<svg width="974" height="361" viewBox="0 0 974 361" fill="none" xmlns="http://www.w3.org/2000/svg">
<path fill-rule="evenodd" clip-rule="evenodd" d="M296.825 699.939C225.845 667.133 202.195 591.106 165.971 529.589C133.984 475.269 97.6093 420.616 99.1863 364.306C100.762 308.04 146.112 269.622 174.568 222.606C212.869 159.325 208.138 50.9905 294.416 41.7443C380.742 32.4929 437.667 149.661 523.506 185.211C613.749 222.586 733.179 183.683 799.036 250.734C863.405 316.271 818.404 403.901 814.482 481.463C810.658 557.113 840.51 652.358 776.48 696.853C712.201 741.521 603.073 689.799 513.85 690.373C439.051 690.854 367.967 732.819 296.825 699.939Z" fill="#4D0089" fill-opacity="0.2"/>
<path fill-rule="evenodd" clip-rule="evenodd" d="M309.883 725.939C238.903 693.133 215.253 617.106 179.029 555.589C147.043 501.269 110.667 446.616 112.244 390.306C113.82 334.04 159.17 295.622 187.626 248.606C225.927 185.325 221.196 76.9905 307.474 67.7443C393.8 58.4929 450.725 175.661 536.564 211.211C626.807 248.586 746.237 209.683 812.094 276.734C876.463 342.271 831.462 429.901 827.541 507.463C823.716 583.113 853.568 678.358 789.538 722.853C725.259 767.521 616.131 715.799 526.908 716.373C452.109 716.854 381.025 758.819 309.883 725.939Z" fill="#4D0089" fill-opacity="0.3"/>
</svg>
