<svg width="57" height="57" viewBox="0 0 57 57" fill="none" xmlns="http://www.w3.org/2000/svg">
<path fill-rule="evenodd" clip-rule="evenodd" d="M28.4901 1.42499C21.7664 1.42848 15.2632 3.80987 10.1433 8.14336C5.02344 12.4768 1.62073 18.4798 0.543632 25.0789C-0.533467 31.678 0.785274 38.4429 4.26408 44.1639C7.74288 49.885 13.1549 54.1891 19.5324 56.3067C20.9393 56.5678 21.4693 55.6958 21.4693 54.9544C21.4693 54.2129 21.4412 52.0631 21.4318 49.7129C13.5527 51.4149 11.8878 46.388 11.8878 46.388C10.6028 43.1237 8.74555 42.2657 8.74555 42.2657C6.17548 40.5216 8.93785 40.5543 8.93785 40.5543C11.7846 40.7548 13.2807 43.4595 13.2807 43.4595C15.8039 47.7636 19.9076 46.5185 21.5209 45.7911C21.7741 43.9678 22.5105 42.7273 23.3218 42.0232C17.028 41.3144 10.4152 38.8988 10.4152 28.1081C10.3762 25.3095 11.4206 22.6032 13.3323 20.5489C13.0415 19.8401 12.0707 16.9769 13.609 13.0878C13.609 13.0878 15.9868 12.3323 21.399 15.9743C26.0412 14.712 30.9391 14.712 35.5813 15.9743C40.9888 12.3323 43.3618 13.0878 43.3618 13.0878C44.9048 16.9676 43.934 19.8308 43.6433 20.5489C45.561 22.6035 46.6076 25.3146 46.5651 28.1174C46.5651 38.9314 39.9382 41.3144 33.635 42.0092C34.648 42.8859 35.5531 44.5973 35.5531 47.2274C35.5531 50.9953 35.5203 54.0264 35.5203 54.9544C35.5203 55.7051 36.0315 56.5818 37.4666 56.3067C43.8448 54.1888 49.2574 49.884 52.7361 44.1619C56.2149 38.4399 57.5329 31.674 56.4546 25.0743C55.3763 18.4746 51.9719 12.4716 46.8503 8.13883C41.7287 3.80609 35.224 1.42627 28.4995 1.42499H28.4901Z" fill="#A45CFF"/>
<path d="M10.8928 41.86C10.8318 41.9999 10.6067 42.0418 10.4238 41.9439C10.2409 41.846 10.1049 41.6641 10.1706 41.5195C10.2362 41.375 10.4567 41.3377 10.6396 41.4356C10.8225 41.5335 10.9632 41.7201 10.8928 41.86Z" fill="#A45CFF"/>
<path d="M12.0421 43.133C11.945 43.1817 11.8339 43.1952 11.7278 43.1714C11.6217 43.1476 11.5273 43.0879 11.4606 43.0024C11.2777 42.8066 11.2402 42.5361 11.3808 42.4149C11.5215 42.2936 11.7748 42.3496 11.9577 42.5454C12.1406 42.7413 12.1828 43.0118 12.0421 43.133Z" fill="#A45CFF"/>
<path d="M13.158 44.7511C12.9845 44.8724 12.689 44.7511 12.5249 44.5087C12.4795 44.4652 12.4434 44.413 12.4187 44.3553C12.3941 44.2976 12.3813 44.2356 12.3813 44.1729C12.3813 44.1102 12.3941 44.0482 12.4187 43.9905C12.4434 43.9328 12.4795 43.8807 12.5249 43.8372C12.6984 43.7206 12.9939 43.8371 13.158 44.075C13.3222 44.3128 13.3269 44.6299 13.158 44.7511V44.7511Z" fill="#A45CFF"/>
<path d="M14.673 46.318C14.5182 46.4905 14.204 46.4439 13.9461 46.2108C13.6881 45.9776 13.6271 45.6605 13.7819 45.4926C13.9367 45.3247 14.2509 45.3714 14.5182 45.5999C14.7856 45.8284 14.8371 46.1501 14.673 46.318V46.318Z" fill="#A45CFF"/>
<path d="M16.7975 47.232C16.7272 47.4511 16.4083 47.5491 16.0893 47.4558C15.7704 47.3625 15.5594 47.1014 15.6204 46.8776C15.6813 46.6537 16.0049 46.5511 16.3285 46.6537C16.6521 46.7563 16.8585 47.0035 16.7975 47.232Z" fill="#A45CFF"/>
<path d="M19.1146 47.3905C19.1146 47.619 18.852 47.8149 18.5143 47.8195C18.1766 47.8242 17.8999 47.6377 17.8999 47.4092C17.8999 47.1807 18.1625 46.9848 18.5002 46.9802C18.8379 46.9755 19.1146 47.1574 19.1146 47.3905Z" fill="#A45CFF"/>
<path d="M21.2716 47.0315C21.3138 47.26 21.0793 47.4978 20.7416 47.5538C20.404 47.6098 20.1085 47.4745 20.0663 47.2507C20.0241 47.0269 20.2679 46.7844 20.5962 46.7238C20.9245 46.6631 21.2294 46.803 21.2716 47.0315Z" fill="#A45CFF"/>
</svg>
